<svg xmlns="http://www.w3.org/2000/svg" xmlns:xlink="http://www.w3.org/1999/xlink" width="650" zoomAndPan="magnify" viewBox="0 0 487.5 56.999997" height="76" preserveAspectRatio="xMidYMid meet" version="1.0"><defs><g/></defs><path fill="#3b3c98" d="M 29.582031 37.90625 C 27.164062 37.90625 25.0625 39.238281 23.921875 41.191406 C 23.355469 42.160156 23.007812 43.277344 23.007812 44.476562 C 23.007812 48.09375 25.957031 51.042969 29.582031 51.042969 C 33.207031 51.042969 36.15625 48.09375 36.15625 44.476562 C 36.15625 43.277344 35.8125 42.160156 35.242188 41.191406 C 34.101562 39.238281 32.003906 37.90625 29.582031 37.90625 Z M 29.582031 37.90625 " fill-opacity="1" fill-rule="nonzero"/><path fill="#3b3c98" d="M 75.601562 37.90625 C 73.179688 37.90625 71.082031 39.238281 69.941406 41.191406 C 69.375 42.160156 69.027344 43.277344 69.027344 44.476562 C 69.027344 48.09375 71.972656 51.042969 75.601562 51.042969 C 79.226562 51.042969 82.175781 48.09375 82.175781 44.476562 C 82.175781 43.277344 81.828125 42.160156 81.261719 41.191406 C 80.121094 39.238281 78.023438 37.90625 75.601562 37.90625 Z M 75.601562 37.90625 " fill-opacity="1" fill-rule="nonzero"/><path fill="#3b3c98" d="M 95.320312 31.339844 L 95.320312 28.054688 L 75.601562 22.421875 L 52.589844 8.347656 L 16.433594 8.347656 L 16.433594 11.632812 L 36.15625 11.632812 L 36.15625 14.917969 L 0 14.917969 L 0 18.199219 L 39.445312 18.199219 L 39.445312 21.484375 L 6.574219 21.484375 L 6.574219 24.769531 L 23.007812 24.769531 L 23.007812 28.054688 L 16.433594 28.054688 L 16.433594 31.339844 L 3.285156 31.339844 L 3.285156 34.621094 L 19.722656 34.621094 L 19.722656 37.90625 L 16.433594 37.90625 L 16.433594 41.191406 L 6.574219 41.191406 L 6.574219 44.476562 L 19.722656 44.476562 C 19.722656 43.320312 19.957031 42.222656 20.328125 41.191406 C 21.6875 37.375 25.296875 34.621094 29.582031 34.621094 C 33.871094 34.621094 37.476562 37.375 38.839844 41.191406 C 39.203125 42.222656 39.445312 43.320312 39.445312 44.476562 L 65.738281 44.476562 C 65.738281 43.320312 65.976562 42.222656 66.34375 41.191406 C 67.703125 37.375 71.3125 34.621094 75.601562 34.621094 C 79.890625 34.621094 83.496094 37.375 84.855469 41.191406 C 85.222656 42.222656 85.460938 43.320312 85.460938 44.476562 L 95.320312 44.476562 L 95.320312 41.191406 L 98.609375 41.191406 L 98.609375 31.339844 Z M 95.320312 31.339844 " fill-opacity="1" fill-rule="nonzero"/><g fill="#3b3c98" fill-opacity="1"><g transform="translate(114.821589, 53.829193)"><g><path d="M 29.703125 -51.15625 L 50.34375 0 L 37.8125 0 L 34.03125 -10.234375 L 14.5625 -10.234375 L 10.78125 0 L -1.734375 0 L 18.90625 -51.15625 Z M 30.0625 -20.453125 L 24.359375 -35.34375 L 24.234375 -35.34375 L 18.53125 -20.453125 Z M 30.0625 -20.453125 "/></g></g></g><g fill="#3b3c98" fill-opacity="1"><g transform="translate(163.423397, 53.829193)"><g><path d="M 14.078125 -31.8125 L 14.078125 -16.671875 C 14.078125 -13.535156 14.550781 -11.304688 15.5 -9.984375 C 16.445312 -8.660156 18.054688 -8 20.328125 -8 C 22.609375 -8 24.222656 -8.660156 25.171875 -9.984375 C 26.117188 -11.304688 26.59375 -13.535156 26.59375 -16.671875 L 26.59375 -31.8125 L 37.578125 -31.8125 L 37.578125 -14.015625 C 37.578125 -8.722656 36.203125 -4.90625 33.453125 -2.5625 C 30.703125 -0.226562 26.328125 0.9375 20.328125 0.9375 C 14.335938 0.9375 9.96875 -0.226562 7.21875 -2.5625 C 4.46875 -4.90625 3.09375 -8.722656 3.09375 -14.015625 L 3.09375 -31.8125 Z M 14.078125 -31.8125 "/></g></g></g><g fill="#3b3c98" fill-opacity="1"><g transform="translate(204.090216, 53.829193)"><g><path d="M 5.578125 -31.8125 L 5.578125 -43.640625 L 16.546875 -43.640625 L 16.546875 -31.8125 L 23.25 -31.8125 L 23.25 -23.4375 L 16.546875 -23.4375 L 16.546875 -13.328125 C 16.546875 -10.390625 17.375 -8.921875 19.03125 -8.921875 C 19.445312 -8.921875 19.878906 -9.003906 20.328125 -9.171875 C 20.785156 -9.335938 21.140625 -9.503906 21.390625 -9.671875 L 21.765625 -9.921875 L 24.484375 -1.046875 C 22.128906 0.273438 19.445312 0.9375 16.4375 0.9375 C 14.363281 0.9375 12.582031 0.578125 11.09375 -0.140625 C 9.601562 -0.867188 8.476562 -1.84375 7.71875 -3.0625 C 6.957031 -4.28125 6.410156 -5.5625 6.078125 -6.90625 C 5.742188 -8.25 5.578125 -9.6875 5.578125 -11.21875 L 5.578125 -23.4375 L 0.984375 -23.4375 L 0.984375 -31.8125 Z M 5.578125 -31.8125 "/></g></g></g><g fill="#3b3c98" fill-opacity="1"><g transform="translate(228.577092, 53.829193)"><g><path d="M 6.71875 -3.78125 C 3.1875 -6.925781 1.421875 -10.957031 1.421875 -15.875 C 1.421875 -20.789062 3.257812 -24.828125 6.9375 -27.984375 C 10.625 -31.148438 15.171875 -32.734375 20.578125 -32.734375 C 25.910156 -32.734375 30.40625 -31.140625 34.0625 -27.953125 C 37.726562 -24.773438 39.5625 -20.75 39.5625 -15.875 C 39.5625 -11 37.769531 -6.976562 34.1875 -3.8125 C 30.613281 -0.644531 26.078125 0.9375 20.578125 0.9375 C 14.878906 0.9375 10.257812 -0.632812 6.71875 -3.78125 Z M 15.21875 -21.265625 C 13.789062 -19.859375 13.078125 -18.0625 13.078125 -15.875 C 13.078125 -13.6875 13.757812 -11.898438 15.125 -10.515625 C 16.488281 -9.128906 18.285156 -8.4375 20.515625 -8.4375 C 22.671875 -8.4375 24.441406 -9.132812 25.828125 -10.53125 C 27.210938 -11.9375 27.90625 -13.71875 27.90625 -15.875 C 27.90625 -18.0625 27.191406 -19.859375 25.765625 -21.265625 C 24.335938 -22.671875 22.585938 -23.375 20.515625 -23.375 C 18.410156 -23.375 16.644531 -22.671875 15.21875 -21.265625 Z M 15.21875 -21.265625 "/></g></g></g><g fill="#000000" fill-opacity="1"><g transform="translate(269.555956, 53.829193)"><g><path d="M 15.375 -20.515625 L 15.375 0 L 3.71875 0 L 3.71875 -51.15625 L 15.375 -51.15625 L 15.375 -30.75 L 31.875 -30.75 L 31.875 -51.15625 L 43.53125 -51.15625 L 43.53125 0 L 31.875 0 L 31.875 -20.515625 Z M 15.375 -20.515625 "/></g></g></g><g fill="#000000" fill-opacity="1"><g transform="translate(316.793938, 53.829193)"><g><path d="M 5.890625 -3.921875 C 2.910156 -7.171875 1.421875 -11.148438 1.421875 -15.859375 C 1.421875 -20.578125 2.910156 -24.566406 5.890625 -27.828125 C 8.867188 -31.097656 12.648438 -32.734375 17.234375 -32.734375 C 21.453125 -32.734375 24.925781 -31.410156 27.65625 -28.765625 L 27.65625 -31.8125 L 38.625 -31.8125 L 38.625 0 L 27.78125 0 L 27.78125 -3.59375 L 27.65625 -3.59375 C 24.925781 -0.570312 21.453125 0.9375 17.234375 0.9375 C 12.648438 0.9375 8.867188 -0.679688 5.890625 -3.921875 Z M 15.21875 -21.265625 C 13.789062 -19.859375 13.078125 -18.0625 13.078125 -15.875 C 13.078125 -13.6875 13.757812 -11.898438 15.125 -10.515625 C 16.488281 -9.128906 18.285156 -8.4375 20.515625 -8.4375 C 22.671875 -8.4375 24.441406 -9.132812 25.828125 -10.53125 C 27.210938 -11.9375 27.90625 -13.71875 27.90625 -15.875 C 27.90625 -18.0625 27.191406 -19.859375 25.765625 -21.265625 C 24.335938 -22.671875 22.585938 -23.375 20.515625 -23.375 C 18.410156 -23.375 16.644531 -22.671875 15.21875 -21.265625 Z M 15.21875 -21.265625 "/></g></g></g><g fill="#000000" fill-opacity="1"><g transform="translate(359.134546, 53.829193)"><g><path d="M 11.78125 -31.8125 L 19.53125 -14.515625 L 27.28125 -31.8125 L 40.296875 -31.8125 L 23.25 0 L 15.8125 0 L -1.234375 -31.8125 Z M 11.78125 -31.8125 "/></g></g></g><g fill="#000000" fill-opacity="1"><g transform="translate(398.189567, 53.829193)"><g><path d="M 35.890625 -14.390625 L 12.828125 -14.390625 C 12.828125 -12.148438 13.550781 -10.492188 15 -9.421875 C 16.445312 -8.347656 18.019531 -7.8125 19.71875 -7.8125 C 21.488281 -7.8125 22.890625 -8.046875 23.921875 -8.515625 C 24.960938 -8.992188 26.144531 -9.9375 27.46875 -11.34375 L 35.40625 -7.375 C 32.09375 -1.832031 26.59375 0.9375 18.90625 0.9375 C 14.113281 0.9375 10 -0.703125 6.5625 -3.984375 C 3.132812 -7.273438 1.421875 -11.234375 1.421875 -15.859375 C 1.421875 -20.492188 3.132812 -24.460938 6.5625 -27.765625 C 10 -31.078125 14.113281 -32.734375 18.90625 -32.734375 C 23.945312 -32.734375 28.046875 -31.273438 31.203125 -28.359375 C 34.367188 -25.453125 35.953125 -21.289062 35.953125 -15.875 C 35.953125 -15.125 35.929688 -14.628906 35.890625 -14.390625 Z M 13.140625 -20.453125 L 25.234375 -20.453125 C 24.984375 -22.109375 24.332031 -23.378906 23.28125 -24.265625 C 22.226562 -25.160156 20.875 -25.609375 19.21875 -25.609375 C 17.394531 -25.609375 15.945312 -25.128906 14.875 -24.171875 C 13.800781 -23.222656 13.222656 -21.984375 13.140625 -20.453125 Z M 13.140625 -20.453125 "/></g></g></g><g fill="#000000" fill-opacity="1"><g transform="translate(435.57081, 53.829193)"><g><path d="M 3.71875 0 L 3.71875 -31.8125 L 14.6875 -31.8125 L 14.6875 -28.453125 L 14.8125 -28.453125 C 17.664062 -31.304688 20.707031 -32.734375 23.9375 -32.734375 C 25.5 -32.734375 27.054688 -32.523438 28.609375 -32.109375 C 30.160156 -31.703125 31.648438 -31.0625 33.078125 -30.1875 C 34.503906 -29.320312 35.660156 -28.09375 36.546875 -26.5 C 37.429688 -24.914062 37.875 -23.066406 37.875 -20.953125 L 37.875 0 L 26.90625 0 L 26.90625 -17.984375 C 26.90625 -19.628906 26.378906 -21.070312 25.328125 -22.3125 C 24.273438 -23.5625 22.898438 -24.1875 21.203125 -24.1875 C 19.546875 -24.1875 18.046875 -23.546875 16.703125 -22.265625 C 15.359375 -20.984375 14.6875 -19.554688 14.6875 -17.984375 L 14.6875 0 Z M 3.71875 0 "/></g></g></g></svg>